Music_PatientIsTheNight:
	channel_count 4
	channel 1, Music_PatientIsTheNight_Ch1
	channel 2, Music_PatientIsTheNight_Ch2
	channel 3, Music_PatientIsTheNight_Ch3
	channel 4, Music_PatientIsTheNight_Ch4

Music_PatientIsTheNight_Ch1:
	tempo 256
	volume 7, 7
	note_type 12, 15, 8
.mainLoop:
	rest 2
	octave 2
	note G_, 1
	octave 3
	note C_, 2
	note D_, 1
	note E_, 2
	note F_, 1
	note G_, 2
	note A_, 3
	octave 4
	note C_, 2
	octave 3
	note A_, 6
	rest 1
	octave 4
	note A#, 1
	octave 5
	note A#, 2
	rest 1
	octave 3
	note A#, 2
	note A_, 4
	note F_, 2
	note G_, 1
	note A_, 1
	rest 1
	note A_, 4
	note G_, 2
	note F_, 2
	rest 1
	note D_, 1
	note E_, 1
	rest 1
	note E_, 1
	note E_, 1
	note E_, 1
	note G_, 4
	rest 3
	note F_, 2
	note A_, 2
	note F_, 1
	note E_, 1
	note D_, 6
	rest 3
	note C_, 1
	rest 1
	note C_, 2
	rest 1
	note C_, 1
	note C_, 1
	rest 1
	note C_, 7
	rest 8
	octave 2
	note G_, 1
	octave 3
	note C_, 2
	note D_, 1
	note E_, 2
	note F_, 1
	note G_, 2
	note A_, 1
	octave 4
	note C_, 5
	octave 3
	note A_, 4
	rest 2
	octave 4
	note A#, 1
	octave 5
	note G_, 2
	octave 3
	note A#, 1
	note A_, 2
	note G_, 1
	note F_, 2
	note G_, 3
	rest 1
	note A_, 4
	note G_, 1
	note A_, 1
	note G_, 4
	rest 1
	note D_, 1
	note E_, 1
	rest 1
	note E_, 1
	note E_, 1
	note E_, 1
	note G_, 4
	rest 1
	note F_, 1
	rest 1
	note F_, 1
	rest 1
	note A_, 2
	note F_, 1
	note E_, 1
	note D_, 4
	rest 5
	note C_, 1
	rest 1
	note C_, 2
	rest 1
	note C_, 1
	note C_, 1
	rest 1
	note C_, 7
	rest 6
	octave 8
	sound_loop 0, .mainLoop

Music_PatientIsTheNight_Ch2:
	note_type 12, 15, 8
.mainLoop:
	octave 2
	note C_, 12
	note D_, 3
	octave 1
	note D_, 3
	note E_, 3
	note F_, 3
	note G_, 3
	octave 3
	note D_, 3
	octave 1
	note G_, 3
	octave 3
	note D_, 3
	octave 2
	note B_, 1
	rest 1
	note B_, 7
	octave 1
	note G_, 3
	octave 2
	note G_, 6
	note C#, 1
	note E_, 1
	note G_, 1
	note A_, 2
	rest 1
	note A_, 2
	rest 1
	octave 3
	note C_, 2
	rest 1
	octave 2
	note G#, 1
	note B_, 1
	octave 3
	note C_, 1
	octave 2
	note A_, 2
	rest 1
	note A_, 6
	note G#, 6
	note G_, 6
	note F#, 6
	note C_, 12
	note D_, 3
	octave 1
	note D_, 3
	note E_, 3
	note F_, 3
	note G_, 3
	octave 3
	note D_, 3
	octave 1
	note G_, 3
	octave 3
	note D_, 3
	octave 2
	note B_, 9
	octave 1
	note G_, 3
	octave 2
	note G_, 6
	note C#, 1
	note E_, 1
	note G_, 1
	note A_, 2
	rest 1
	note A_, 2
	rest 1
	octave 3
	note C_, 2
	rest 1
	octave 2
	note A_, 2
	rest 1
	note C_, 1
	note D_, 1
	note F_, 1
	note G#, 11
	rest 1
	note C_, 11
	rest 1
	octave 8
	sound_loop 0, .mainLoop

Music_PatientIsTheNight_Ch3:
	note_type 12, 1, 0
.mainLoop:
	octave 2
	note F_, 12
	note D_, 12
	note G_, 12
	note G_, 1
	rest 1
	note G_, 7
	rest 3
	note E_, 6
	note A_, 6
	note D_, 6
	note E_, 6
	note A_, 6
	note E_, 6
	note G_, 6
	note D_, 6
	note F_, 12
	note D_, 12
	note G_, 7
	rest 2
	note G_, 3
	note G_, 8
	rest 4
	note E_, 6
	note A_, 6
	note D_, 6
	note D_, 6
	note D_, 3
	rest 16
	rest 5
	octave 8
	sound_loop 0, .mainLoop

Music_PatientIsTheNight_Ch4:
	toggle_noise 0
	drum_speed 12
.mainLoop:
	rest 16
	rest 16
	rest 16
	rest 16
	rest 16
	rest 16
	rest 16
	rest 16
	rest 16
	rest 16
	rest 16
	rest 16
	sound_loop 0, .mainLoop
